<svg width="735" height="196" viewBox="0 0 735 196" fill="none" xmlns="http://www.w3.org/2000/svg">
<path d="M205.937 102.328L192.113 68.008C191.633 66.888 191.169 65.544 190.721 63.976C190.529 64.744 190.321 65.48 190.097 66.184C189.873 66.856 189.633 67.48 189.377 68.056L175.553 102.328H205.937ZM220.961 127H217.169C216.721 127 216.353 126.888 216.065 126.664C215.777 126.408 215.553 126.088 215.393 125.704L207.425 105.976H174.065L166.097 125.704C165.969 126.056 165.745 126.36 165.425 126.616C165.105 126.872 164.721 127 164.273 127H160.529L188.321 59.08H193.169L220.961 127ZM234.293 116.584C236.149 119.336 238.181 121.272 240.389 122.392C242.629 123.48 245.141 124.024 247.925 124.024C250.773 124.024 253.253 123.512 255.365 122.488C257.509 121.464 259.285 120.008 260.693 118.12C262.133 116.2 263.205 113.88 263.909 111.16C264.613 108.44 264.965 105.384 264.965 101.992C264.965 95.4 263.653 90.44 261.029 87.112C258.405 83.784 254.725 82.12 249.989 82.12C246.597 82.12 243.637 82.936 241.109 84.568C238.581 86.2 236.309 88.472 234.293 91.384V116.584ZM234.293 87.544C236.373 84.728 238.805 82.52 241.589 80.92C244.373 79.288 247.605 78.472 251.285 78.472C254.165 78.472 256.741 79 259.013 80.056C261.285 81.112 263.205 82.632 264.773 84.616C266.373 86.6 267.589 89.048 268.421 91.96C269.253 94.84 269.669 98.12 269.669 101.8C269.669 105.672 269.205 109.208 268.277 112.408C267.349 115.576 265.989 118.296 264.197 120.568C262.437 122.808 260.277 124.552 257.717 125.8C255.157 127.016 252.229 127.624 248.932 127.624C245.541 127.624 242.645 126.984 240.245 125.704C237.877 124.392 235.829 122.456 234.101 119.896L233.765 125.8C233.669 126.6 233.237 127 232.469 127H229.685V57.16H234.293V87.544ZM301.472 78.472C304.896 78.472 307.952 79.064 310.64 80.248C313.36 81.4 315.648 83.048 317.504 85.192C319.36 87.336 320.768 89.928 321.728 92.968C322.72 95.976 323.216 99.352 323.216 103.096C323.216 106.84 322.72 110.216 321.728 113.224C320.768 116.232 319.36 118.808 317.504 120.952C315.648 123.096 313.36 124.744 310.64 125.896C307.952 127.048 304.896 127.624 301.472 127.624C298.048 127.624 294.976 127.048 292.256 125.896C289.568 124.744 287.28 123.096 285.392 120.952C283.536 118.808 282.112 116.232 281.12 113.224C280.16 110.216 279.68 106.84 279.68 103.096C279.68 99.352 280.16 95.976 281.12 92.968C282.112 89.928 283.536 87.336 285.392 85.192C287.28 83.048 289.568 81.4 292.256 80.248C294.976 79.064 298.048 78.472 301.472 78.472ZM301.472 124.024C304.32 124.024 306.8 123.544 308.912 122.584C311.056 121.592 312.832 120.184 314.24 118.36C315.68 116.536 316.752 114.344 317.456 111.784C318.16 109.192 318.512 106.296 318.512 103.096C318.512 99.928 318.16 97.048 317.456 94.456C316.752 91.864 315.68 89.656 314.24 87.832C312.832 85.976 311.056 84.552 308.912 83.56C306.8 82.568 304.32 82.072 301.472 82.072C298.624 82.072 296.128 82.568 293.984 83.56C291.872 84.552 290.096 85.976 288.656 87.832C287.248 89.656 286.176 91.864 285.44 94.456C284.736 97.048 284.384 99.928 284.384 103.096C284.384 106.296 284.736 109.192 285.44 111.784C286.176 114.344 287.248 116.536 288.656 118.36C290.096 120.184 291.872 121.592 293.984 122.584C296.128 123.544 298.624 124.024 301.472 124.024ZM373.147 79.24V127H370.603C369.803 127 369.339 126.584 369.211 125.752L368.779 118.648C366.571 121.4 364.011 123.608 361.099 125.272C358.219 126.936 355.003 127.768 351.451 127.768C348.795 127.768 346.475 127.352 344.491 126.52C342.507 125.688 340.859 124.488 339.547 122.92C338.235 121.352 337.243 119.464 336.571 117.256C335.899 115.048 335.563 112.552 335.563 109.768V79.24H340.171V109.768C340.171 114.248 341.195 117.768 343.243 120.328C345.291 122.856 348.411 124.12 352.603 124.12C355.707 124.12 358.603 123.336 361.291 121.768C364.011 120.168 366.427 117.96 368.539 115.144V79.24H373.147ZM401.928 127.768C398.696 127.768 396.168 126.872 394.344 125.08C392.552 123.288 391.656 120.52 391.656 116.776V84.136H384.792C384.44 84.136 384.152 84.04 383.928 83.848C383.704 83.656 383.592 83.384 383.592 83.032V81.256L391.752 80.68L392.904 63.592C392.968 63.304 393.096 63.048 393.288 62.824C393.48 62.6 393.752 62.488 394.104 62.488H396.264V80.728H411.336V84.136H396.264V116.536C396.264 117.848 396.424 118.984 396.744 119.944C397.096 120.872 397.56 121.64 398.136 122.248C398.744 122.856 399.448 123.304 400.248 123.592C401.048 123.88 401.912 124.024 402.84 124.024C403.992 124.024 404.984 123.864 405.816 123.544C406.648 123.192 407.368 122.824 407.976 122.44C408.584 122.024 409.08 121.656 409.464 121.336C409.848 120.984 410.152 120.808 410.376 120.808C410.632 120.808 410.888 120.968 411.144 121.288L412.392 123.304C411.176 124.648 409.624 125.736 407.736 126.568C405.88 127.368 403.944 127.768 401.928 127.768ZM517.105 59.08V127H512.833V69.112C512.833 68.28 512.881 67.4 512.977 66.472L486.241 113.944C485.793 114.776 485.153 115.192 484.321 115.192H483.553C482.721 115.192 482.081 114.776 481.633 113.944L454.177 66.376C454.273 67.336 454.321 68.248 454.321 69.112V127H450.001V59.08H453.409C453.857 59.08 454.209 59.128 454.465 59.224C454.721 59.32 454.977 59.576 455.233 59.992L482.641 107.224C483.121 108.12 483.537 109.08 483.889 110.104C484.081 109.592 484.289 109.096 484.513 108.616C484.737 108.104 484.977 107.624 485.233 107.176L511.873 59.992C512.129 59.576 512.385 59.32 512.641 59.224C512.929 59.128 513.297 59.08 513.745 59.08H517.105ZM567.032 98.296C567.032 95.736 566.664 93.448 565.928 91.432C565.224 89.384 564.216 87.656 562.904 86.248C561.592 84.84 560.024 83.768 558.2 83.032C556.408 82.264 554.424 81.88 552.248 81.88C549.784 81.88 547.576 82.264 545.624 83.032C543.672 83.8 541.976 84.904 540.536 86.344C539.128 87.784 537.992 89.512 537.128 91.528C536.264 93.544 535.688 95.8 535.4 98.296H567.032ZM535.16 101.224V102.136C535.16 105.72 535.576 108.872 536.408 111.592C537.24 114.312 538.424 116.6 539.96 118.456C541.496 120.28 543.352 121.656 545.528 122.584C547.704 123.512 550.136 123.976 552.824 123.976C555.224 123.976 557.304 123.72 559.064 123.208C560.824 122.664 562.296 122.072 563.48 121.432C564.696 120.76 565.656 120.168 566.36 119.656C567.064 119.112 567.576 118.84 567.896 118.84C568.312 118.84 568.632 119 568.856 119.32L570.104 120.856C569.336 121.816 568.312 122.712 567.032 123.544C565.784 124.376 564.376 125.096 562.808 125.704C561.272 126.28 559.608 126.744 557.816 127.096C556.056 127.448 554.28 127.624 552.488 127.624C549.224 127.624 546.248 127.064 543.56 125.944C540.872 124.792 538.568 123.128 536.648 120.952C534.728 118.776 533.24 116.12 532.184 112.984C531.16 109.816 530.648 106.2 530.648 102.136C530.648 98.712 531.128 95.56 532.088 92.68C533.08 89.768 534.488 87.272 536.312 85.192C538.168 83.08 540.424 81.432 543.08 80.248C545.768 79.064 548.808 78.472 552.2 78.472C554.888 78.472 557.384 78.936 559.688 79.864C561.992 80.792 563.992 82.152 565.688 83.944C567.384 85.704 568.712 87.88 569.672 90.472C570.664 93.064 571.16 96.04 571.16 99.4C571.16 100.104 571.064 100.584 570.872 100.84C570.68 101.096 570.36 101.224 569.912 101.224H535.16Z" fill="black"/>
<g filter="url(#filter0_d_363_128)">
<rect x="92.5" y="6.5" width="566" height="167" stroke="black" stroke-width="3" shape-rendering="crispEdges"/>
</g>
<defs>
<filter id="filter0_d_363_128" x="84" y="0" width="595" height="196" filterUnits="userSpaceOnUse" color-interpolation-filters="sRGB">
<feFlood flood-opacity="0" result="BackgroundImageFix"/>
<feColorMatrix in="SourceAlpha" type="matrix" values="0 0 0 0 0 0 0 0 0 0 0 0 0 0 0 0 0 0 127 0" result="hardAlpha"/>
<feMorphology radius="9" operator="dilate" in="SourceAlpha" result="effect1_dropShadow_363_128"/>
<feOffset dx="6" dy="8"/>
<feGaussianBlur stdDeviation="2"/>
<feComposite in2="hardAlpha" operator="out"/>
<feColorMatrix type="matrix" values="0 0 0 0 0 0 0 0 0 0 0 0 0 0 0 0 0 0 0.25 0"/>
<feBlend mode="normal" in2="BackgroundImageFix" result="effect1_dropShadow_363_128"/>
<feBlend mode="normal" in="SourceGraphic" in2="effect1_dropShadow_363_128" result="shape"/>
</filter>
</defs>
</svg>
