<svg width="534" height="196" viewBox="0 0 534 196" fill="none" xmlns="http://www.w3.org/2000/svg">
<path d="M123.787 97.704C126.763 97.704 129.435 97.288 131.803 96.456C134.171 95.624 136.171 94.472 137.803 93C139.467 91.528 140.731 89.8 141.595 87.816C142.491 85.8 142.939 83.608 142.939 81.24C142.939 76.024 141.339 72.008 138.139 69.192C134.939 66.376 130.155 64.968 123.787 64.968H111.163V97.704H123.787ZM123.787 61.08C131.755 61.08 137.755 62.824 141.787 66.312C145.851 69.8 147.883 74.776 147.883 81.24C147.883 84.216 147.323 86.952 146.203 89.448C145.083 91.944 143.483 94.104 141.403 95.928C139.323 97.72 136.795 99.128 133.819 100.152C130.843 101.144 127.499 101.64 123.787 101.64H111.163V129H106.219V61.08H123.787ZM162.896 92.76C163.632 90.808 164.464 89.08 165.392 87.576C166.352 86.04 167.44 84.744 168.656 83.688C169.904 82.632 171.28 81.832 172.784 81.288C174.32 80.712 176.016 80.424 177.872 80.424C178.864 80.424 179.84 80.52 180.8 80.712C181.76 80.872 182.608 81.176 183.344 81.624L182.96 84.792C182.8 85.304 182.496 85.56 182.048 85.56C181.664 85.56 181.072 85.448 180.272 85.224C179.504 85 178.48 84.888 177.2 84.888C175.344 84.888 173.696 85.176 172.256 85.752C170.848 86.296 169.568 87.128 168.416 88.248C167.296 89.368 166.304 90.76 165.44 92.424C164.608 94.056 163.84 95.944 163.136 98.088V129H158.528V81.24H160.976C161.52 81.24 161.904 81.352 162.128 81.576C162.352 81.8 162.496 82.184 162.56 82.728L162.896 92.76ZM208.659 80.472C212.083 80.472 215.139 81.064 217.827 82.248C220.547 83.4 222.835 85.048 224.691 87.192C226.547 89.336 227.955 91.928 228.915 94.968C229.907 97.976 230.403 101.352 230.403 105.096C230.403 108.84 229.907 112.216 228.915 115.224C227.955 118.232 226.547 120.808 224.691 122.952C222.835 125.096 220.547 126.744 217.827 127.896C215.139 129.048 212.083 129.624 208.659 129.624C205.235 129.624 202.163 129.048 199.443 127.896C196.755 126.744 194.467 125.096 192.579 122.952C190.723 120.808 189.299 118.232 188.307 115.224C187.347 112.216 186.867 108.84 186.867 105.096C186.867 101.352 187.347 97.976 188.307 94.968C189.299 91.928 190.723 89.336 192.579 87.192C194.467 85.048 196.755 83.4 199.443 82.248C202.163 81.064 205.235 80.472 208.659 80.472ZM208.659 126.024C211.507 126.024 213.987 125.544 216.099 124.584C218.243 123.592 220.019 122.184 221.427 120.36C222.867 118.536 223.939 116.344 224.643 113.784C225.347 111.192 225.699 108.296 225.699 105.096C225.699 101.928 225.347 99.048 224.643 96.456C223.939 93.864 222.867 91.656 221.427 89.832C220.019 87.976 218.243 86.552 216.099 85.56C213.987 84.568 211.507 84.072 208.659 84.072C205.811 84.072 203.315 84.568 201.171 85.56C199.059 86.552 197.283 87.976 195.843 89.832C194.435 91.656 193.363 93.864 192.627 96.456C191.923 99.048 191.571 101.928 191.571 105.096C191.571 108.296 191.923 111.192 192.627 113.784C193.363 116.344 194.435 118.536 195.843 120.36C197.283 122.184 199.059 123.592 201.171 124.584C203.315 125.544 205.811 126.024 208.659 126.024ZM248.366 81.24V135.096C248.366 136.76 248.126 138.296 247.646 139.704C247.166 141.112 246.446 142.328 245.486 143.352C244.558 144.408 243.374 145.224 241.934 145.8C240.526 146.408 238.862 146.712 236.942 146.712C236.014 146.712 235.182 146.632 234.446 146.472C233.71 146.312 232.99 146.056 232.286 145.704L232.526 143.4C232.622 143.112 232.75 142.936 232.91 142.872C233.07 142.84 233.294 142.84 233.582 142.872C233.838 142.936 234.174 143 234.59 143.064C235.006 143.16 235.534 143.208 236.174 143.208C238.766 143.208 240.686 142.504 241.934 141.096C243.182 139.688 243.806 137.688 243.806 135.096V81.24H248.366ZM250.334 64.776C250.334 65.352 250.206 65.896 249.95 66.408C249.726 66.888 249.406 67.32 248.99 67.704C248.606 68.088 248.158 68.392 247.646 68.616C247.134 68.84 246.59 68.952 246.014 68.952C245.438 68.952 244.894 68.84 244.382 68.616C243.87 68.392 243.422 68.088 243.038 67.704C242.654 67.32 242.35 66.888 242.126 66.408C241.902 65.896 241.79 65.352 241.79 64.776C241.79 64.2 241.902 63.656 242.126 63.144C242.35 62.6 242.654 62.136 243.038 61.752C243.422 61.368 243.87 61.064 244.382 60.84C244.894 60.616 245.438 60.504 246.014 60.504C246.59 60.504 247.134 60.616 247.646 60.84C248.158 61.064 248.606 61.368 248.99 61.752C249.406 62.136 249.726 62.6 249.95 63.144C250.206 63.656 250.334 64.2 250.334 64.776ZM298.157 100.296C298.157 97.736 297.789 95.448 297.053 93.432C296.349 91.384 295.341 89.656 294.029 88.248C292.717 86.84 291.149 85.768 289.325 85.032C287.533 84.264 285.549 83.88 283.373 83.88C280.909 83.88 278.701 84.264 276.749 85.032C274.797 85.8 273.101 86.904 271.661 88.344C270.253 89.784 269.117 91.512 268.253 93.528C267.389 95.544 266.813 97.8 266.525 100.296H298.157ZM266.285 103.224V104.136C266.285 107.72 266.701 110.872 267.533 113.592C268.365 116.312 269.549 118.6 271.085 120.456C272.621 122.28 274.477 123.656 276.653 124.584C278.829 125.512 281.261 125.976 283.949 125.976C286.349 125.976 288.429 125.72 290.189 125.208C291.949 124.664 293.421 124.072 294.605 123.432C295.821 122.76 296.781 122.168 297.485 121.656C298.189 121.112 298.701 120.84 299.021 120.84C299.437 120.84 299.757 121 299.981 121.32L301.229 122.856C300.461 123.816 299.437 124.712 298.157 125.544C296.909 126.376 295.501 127.096 293.933 127.704C292.397 128.28 290.733 128.744 288.941 129.096C287.181 129.448 285.405 129.624 283.613 129.624C280.349 129.624 277.373 129.064 274.685 127.944C271.997 126.792 269.693 125.128 267.773 122.952C265.853 120.776 264.365 118.12 263.309 114.984C262.285 111.816 261.773 108.2 261.773 104.136C261.773 100.712 262.253 97.56 263.213 94.68C264.205 91.768 265.613 89.272 267.437 87.192C269.293 85.08 271.549 83.432 274.205 82.248C276.893 81.064 279.933 80.472 283.325 80.472C286.013 80.472 288.509 80.936 290.813 81.864C293.117 82.792 295.117 84.152 296.813 85.944C298.509 87.704 299.837 89.88 300.797 92.472C301.789 95.064 302.285 98.04 302.285 101.4C302.285 102.104 302.189 102.584 301.997 102.84C301.805 103.096 301.485 103.224 301.037 103.224H266.285ZM346.828 87.624C346.668 87.784 346.508 87.928 346.348 88.056C346.22 88.152 346.028 88.2 345.772 88.2C345.452 88.2 345.02 87.992 344.476 87.576C343.932 87.128 343.196 86.648 342.268 86.136C341.34 85.624 340.172 85.16 338.764 84.744C337.388 84.296 335.708 84.072 333.724 84.072C330.972 84.072 328.524 84.568 326.38 85.56C324.268 86.52 322.476 87.912 321.004 89.736C319.532 91.56 318.412 93.768 317.644 96.36C316.908 98.952 316.54 101.864 316.54 105.096C316.54 108.456 316.924 111.432 317.692 114.024C318.492 116.616 319.612 118.808 321.052 120.6C322.492 122.36 324.236 123.704 326.284 124.632C328.332 125.56 330.604 126.024 333.1 126.024C335.404 126.024 337.324 125.752 338.86 125.208C340.428 124.664 341.708 124.072 342.7 123.432C343.724 122.792 344.524 122.2 345.1 121.656C345.676 121.112 346.156 120.84 346.54 120.84C346.924 120.84 347.244 121 347.5 121.32L348.7 122.856C347.964 123.816 347.036 124.712 345.916 125.544C344.796 126.376 343.532 127.096 342.124 127.704C340.716 128.312 339.18 128.776 337.516 129.096C335.884 129.448 334.172 129.624 332.38 129.624C329.34 129.624 326.556 129.08 324.028 127.992C321.532 126.872 319.372 125.272 317.548 123.192C315.756 121.08 314.348 118.504 313.324 115.464C312.332 112.424 311.836 108.968 311.836 105.096C311.836 101.448 312.316 98.12 313.276 95.112C314.236 92.104 315.644 89.512 317.5 87.336C319.356 85.16 321.612 83.48 324.268 82.296C326.956 81.08 330.028 80.472 333.484 80.472C336.588 80.472 339.34 80.968 341.74 81.96C344.14 82.952 346.236 84.296 348.028 85.992L346.828 87.624ZM373.053 129.768C369.821 129.768 367.293 128.872 365.469 127.08C363.677 125.288 362.781 122.52 362.781 118.776V86.136H355.917C355.565 86.136 355.277 86.04 355.053 85.848C354.829 85.656 354.717 85.384 354.717 85.032V83.256L362.877 82.68L364.029 65.592C364.093 65.304 364.221 65.048 364.413 64.824C364.605 64.6 364.877 64.488 365.229 64.488H367.389V82.728H382.461V86.136H367.389V118.536C367.389 119.848 367.549 120.984 367.869 121.944C368.221 122.872 368.685 123.64 369.261 124.248C369.869 124.856 370.573 125.304 371.373 125.592C372.173 125.88 373.037 126.024 373.965 126.024C375.117 126.024 376.109 125.864 376.941 125.544C377.773 125.192 378.493 124.824 379.101 124.44C379.709 124.024 380.205 123.656 380.589 123.336C380.973 122.984 381.277 122.808 381.501 122.808C381.757 122.808 382.013 122.968 382.269 123.288L383.517 125.304C382.301 126.648 380.749 127.736 378.861 128.568C377.005 129.368 375.069 129.768 373.053 129.768ZM419.159 87.144C418.903 87.592 418.535 87.816 418.055 87.816C417.703 87.816 417.255 87.624 416.711 87.24C416.167 86.824 415.431 86.376 414.503 85.896C413.607 85.384 412.487 84.936 411.143 84.552C409.799 84.136 408.167 83.928 406.247 83.928C404.519 83.928 402.935 84.184 401.495 84.696C400.087 85.176 398.871 85.832 397.847 86.664C396.855 87.496 396.087 88.472 395.543 89.592C394.999 90.68 394.727 91.832 394.727 93.048C394.727 94.552 395.111 95.8 395.879 96.792C396.647 97.784 397.639 98.632 398.855 99.336C400.103 100.04 401.527 100.648 403.127 101.16C404.727 101.672 406.343 102.184 407.975 102.696C409.639 103.208 411.271 103.784 412.871 104.424C414.471 105.032 415.879 105.8 417.095 106.728C418.343 107.656 419.351 108.792 420.119 110.136C420.887 111.48 421.271 113.112 421.271 115.032C421.271 117.112 420.903 119.048 420.167 120.84C419.431 122.632 418.343 124.184 416.903 125.496C415.495 126.808 413.751 127.848 411.671 128.616C409.591 129.384 407.207 129.768 404.519 129.768C401.159 129.768 398.263 129.24 395.831 128.184C393.399 127.096 391.223 125.688 389.303 123.96L390.359 122.328C390.519 122.072 390.695 121.88 390.887 121.752C391.111 121.624 391.399 121.56 391.751 121.56C392.167 121.56 392.663 121.816 393.239 122.328C393.847 122.84 394.647 123.4 395.639 124.008C396.631 124.584 397.847 125.128 399.287 125.64C400.759 126.152 402.567 126.408 404.711 126.408C406.727 126.408 408.503 126.136 410.039 125.592C411.575 125.016 412.855 124.248 413.879 123.288C414.903 122.328 415.671 121.208 416.183 119.928C416.727 118.616 416.999 117.24 416.999 115.8C416.999 114.2 416.615 112.872 415.847 111.816C415.079 110.76 414.071 109.864 412.823 109.128C411.575 108.392 410.151 107.768 408.551 107.256C406.983 106.744 405.367 106.232 403.703 105.72C402.039 105.208 400.407 104.648 398.807 104.04C397.239 103.432 395.831 102.664 394.583 101.736C393.335 100.808 392.327 99.688 391.559 98.376C390.791 97.032 390.407 95.368 390.407 93.384C390.407 91.688 390.775 90.056 391.511 88.488C392.247 86.92 393.287 85.544 394.631 84.36C396.007 83.176 397.671 82.232 399.623 81.528C401.575 80.824 403.767 80.472 406.199 80.472C409.111 80.472 411.687 80.888 413.927 81.72C416.199 82.552 418.263 83.832 420.119 85.56L419.159 87.144Z" fill="black"/>
<g filter="url(#filter0_d_326_880)">
<rect x="8.5" y="6.5" width="505" height="167" stroke="black" stroke-width="3" shape-rendering="crispEdges"/>
</g>
<defs>
<filter id="filter0_d_326_880" x="0" y="0" width="534" height="196" filterUnits="userSpaceOnUse" color-interpolation-filters="sRGB">
<feFlood flood-opacity="0" result="BackgroundImageFix"/>
<feColorMatrix in="SourceAlpha" type="matrix" values="0 0 0 0 0 0 0 0 0 0 0 0 0 0 0 0 0 0 127 0" result="hardAlpha"/>
<feMorphology radius="9" operator="dilate" in="SourceAlpha" result="effect1_dropShadow_326_880"/>
<feOffset dx="6" dy="8"/>
<feGaussianBlur stdDeviation="2"/>
<feComposite in2="hardAlpha" operator="out"/>
<feColorMatrix type="matrix" values="0 0 0 0 0 0 0 0 0 0 0 0 0 0 0 0 0 0 0.25 0"/>
<feBlend mode="normal" in2="BackgroundImageFix" result="effect1_dropShadow_326_880"/>
<feBlend mode="normal" in="SourceGraphic" in2="effect1_dropShadow_326_880" result="shape"/>
</filter>
</defs>
</svg>
