<svg width="534" height="196" viewBox="0 0 534 196" fill="none" xmlns="http://www.w3.org/2000/svg">
<path d="M101.736 94.632C104.744 94.632 107.432 94.28 109.8 93.576C112.2 92.84 114.216 91.8 115.848 90.456C117.512 89.112 118.776 87.496 119.64 85.608C120.504 83.72 120.936 81.592 120.936 79.224C120.936 74.392 119.352 70.808 116.184 68.472C113.048 66.136 108.456 64.968 102.408 64.968H89.9762V94.632H101.736ZM131.88 129H127.656C127.112 129 126.648 128.92 126.264 128.76C125.912 128.568 125.576 128.232 125.256 127.752L103.464 100.2C103.208 99.848 102.936 99.544 102.648 99.288C102.392 99.032 102.088 98.84 101.736 98.712C101.416 98.552 101.016 98.44 100.536 98.376C100.088 98.312 99.5282 98.28 98.8562 98.28H89.9762V129H85.0322V61.08H102.408C110.216 61.08 116.056 62.6 119.928 65.64C123.832 68.648 125.784 73.08 125.784 78.936C125.784 81.528 125.336 83.896 124.44 86.04C123.544 88.184 122.248 90.072 120.552 91.704C118.888 93.304 116.856 94.616 114.456 95.64C112.088 96.664 109.416 97.352 106.44 97.704C107.208 98.184 107.896 98.824 108.504 99.624L131.88 129ZM171.689 100.296C171.689 97.736 171.321 95.448 170.585 93.432C169.881 91.384 168.873 89.656 167.561 88.248C166.249 86.84 164.681 85.768 162.857 85.032C161.065 84.264 159.081 83.88 156.905 83.88C154.441 83.88 152.233 84.264 150.281 85.032C148.329 85.8 146.633 86.904 145.193 88.344C143.785 89.784 142.649 91.512 141.785 93.528C140.921 95.544 140.345 97.8 140.057 100.296H171.689ZM139.817 103.224V104.136C139.817 107.72 140.233 110.872 141.065 113.592C141.897 116.312 143.081 118.6 144.617 120.456C146.153 122.28 148.009 123.656 150.185 124.584C152.361 125.512 154.793 125.976 157.481 125.976C159.881 125.976 161.961 125.72 163.721 125.208C165.481 124.664 166.953 124.072 168.137 123.432C169.353 122.76 170.313 122.168 171.017 121.656C171.721 121.112 172.233 120.84 172.553 120.84C172.969 120.84 173.289 121 173.513 121.32L174.761 122.856C173.993 123.816 172.969 124.712 171.689 125.544C170.441 126.376 169.033 127.096 167.465 127.704C165.929 128.28 164.265 128.744 162.473 129.096C160.713 129.448 158.937 129.624 157.145 129.624C153.881 129.624 150.905 129.064 148.217 127.944C145.529 126.792 143.225 125.128 141.305 122.952C139.385 120.776 137.897 118.12 136.841 114.984C135.817 111.816 135.305 108.2 135.305 104.136C135.305 100.712 135.785 97.56 136.745 94.68C137.737 91.768 139.145 89.272 140.969 87.192C142.825 85.08 145.081 83.432 147.737 82.248C150.425 81.064 153.465 80.472 156.857 80.472C159.545 80.472 162.041 80.936 164.345 81.864C166.649 82.792 168.649 84.152 170.345 85.944C172.041 87.704 173.369 89.88 174.329 92.472C175.321 95.064 175.817 98.04 175.817 101.4C175.817 102.104 175.721 102.584 175.529 102.84C175.337 103.096 175.017 103.224 174.569 103.224H139.817ZM214.503 87.144C214.247 87.592 213.879 87.816 213.399 87.816C213.047 87.816 212.599 87.624 212.055 87.24C211.511 86.824 210.775 86.376 209.847 85.896C208.951 85.384 207.831 84.936 206.487 84.552C205.143 84.136 203.511 83.928 201.591 83.928C199.863 83.928 198.279 84.184 196.839 84.696C195.431 85.176 194.215 85.832 193.191 86.664C192.199 87.496 191.431 88.472 190.887 89.592C190.343 90.68 190.071 91.832 190.071 93.048C190.071 94.552 190.455 95.8 191.223 96.792C191.991 97.784 192.983 98.632 194.199 99.336C195.447 100.04 196.871 100.648 198.471 101.16C200.071 101.672 201.687 102.184 203.319 102.696C204.983 103.208 206.615 103.784 208.215 104.424C209.815 105.032 211.223 105.8 212.439 106.728C213.687 107.656 214.695 108.792 215.463 110.136C216.231 111.48 216.615 113.112 216.615 115.032C216.615 117.112 216.247 119.048 215.511 120.84C214.775 122.632 213.687 124.184 212.247 125.496C210.839 126.808 209.095 127.848 207.015 128.616C204.935 129.384 202.551 129.768 199.863 129.768C196.503 129.768 193.607 129.24 191.175 128.184C188.743 127.096 186.567 125.688 184.647 123.96L185.703 122.328C185.863 122.072 186.039 121.88 186.231 121.752C186.455 121.624 186.743 121.56 187.095 121.56C187.511 121.56 188.007 121.816 188.583 122.328C189.191 122.84 189.991 123.4 190.983 124.008C191.975 124.584 193.191 125.128 194.631 125.64C196.103 126.152 197.911 126.408 200.055 126.408C202.071 126.408 203.847 126.136 205.383 125.592C206.919 125.016 208.199 124.248 209.223 123.288C210.247 122.328 211.015 121.208 211.527 119.928C212.071 118.616 212.343 117.24 212.343 115.8C212.343 114.2 211.959 112.872 211.191 111.816C210.423 110.76 209.415 109.864 208.167 109.128C206.919 108.392 205.495 107.768 203.895 107.256C202.327 106.744 200.711 106.232 199.047 105.72C197.383 105.208 195.751 104.648 194.151 104.04C192.583 103.432 191.175 102.664 189.927 101.736C188.679 100.808 187.671 99.688 186.903 98.376C186.135 97.032 185.751 95.368 185.751 93.384C185.751 91.688 186.119 90.056 186.855 88.488C187.591 86.92 188.631 85.544 189.975 84.36C191.351 83.176 193.015 82.232 194.967 81.528C196.919 80.824 199.111 80.472 201.543 80.472C204.455 80.472 207.031 80.888 209.271 81.72C211.543 82.552 213.607 83.832 215.463 85.56L214.503 87.144ZM262.532 100.296C262.532 97.736 262.164 95.448 261.428 93.432C260.724 91.384 259.716 89.656 258.404 88.248C257.092 86.84 255.524 85.768 253.7 85.032C251.908 84.264 249.924 83.88 247.748 83.88C245.284 83.88 243.076 84.264 241.124 85.032C239.172 85.8 237.476 86.904 236.036 88.344C234.628 89.784 233.492 91.512 232.628 93.528C231.764 95.544 231.188 97.8 230.9 100.296H262.532ZM230.66 103.224V104.136C230.66 107.72 231.076 110.872 231.908 113.592C232.74 116.312 233.924 118.6 235.46 120.456C236.996 122.28 238.852 123.656 241.028 124.584C243.204 125.512 245.636 125.976 248.324 125.976C250.724 125.976 252.804 125.72 254.564 125.208C256.324 124.664 257.796 124.072 258.98 123.432C260.196 122.76 261.156 122.168 261.86 121.656C262.564 121.112 263.076 120.84 263.396 120.84C263.812 120.84 264.132 121 264.356 121.32L265.604 122.856C264.836 123.816 263.812 124.712 262.532 125.544C261.284 126.376 259.876 127.096 258.308 127.704C256.772 128.28 255.108 128.744 253.316 129.096C251.556 129.448 249.78 129.624 247.988 129.624C244.724 129.624 241.748 129.064 239.06 127.944C236.372 126.792 234.068 125.128 232.148 122.952C230.228 120.776 228.74 118.12 227.684 114.984C226.66 111.816 226.148 108.2 226.148 104.136C226.148 100.712 226.628 97.56 227.588 94.68C228.58 91.768 229.988 89.272 231.812 87.192C233.668 85.08 235.924 83.432 238.58 82.248C241.268 81.064 244.308 80.472 247.7 80.472C250.388 80.472 252.884 80.936 255.188 81.864C257.492 82.792 259.492 84.152 261.188 85.944C262.884 87.704 264.212 89.88 265.172 92.472C266.164 95.064 266.66 98.04 266.66 101.4C266.66 102.104 266.564 102.584 266.372 102.84C266.18 103.096 265.86 103.224 265.412 103.224H230.66ZM305.827 105.912C301.283 106.072 297.363 106.44 294.067 107.016C290.803 107.56 288.099 108.312 285.955 109.272C283.843 110.232 282.275 111.384 281.251 112.728C280.227 114.04 279.715 115.544 279.715 117.24C279.715 118.84 279.971 120.232 280.483 121.416C281.027 122.568 281.731 123.528 282.595 124.296C283.491 125.032 284.515 125.576 285.667 125.928C286.819 126.28 288.019 126.456 289.267 126.456C291.123 126.456 292.819 126.264 294.355 125.88C295.923 125.464 297.363 124.904 298.675 124.2C300.019 123.464 301.267 122.6 302.419 121.608C303.571 120.616 304.707 119.544 305.827 118.392V105.912ZM277.747 88.008C280.243 85.512 282.867 83.624 285.619 82.344C288.371 81.064 291.491 80.424 294.979 80.424C297.539 80.424 299.779 80.84 301.699 81.672C303.619 82.472 305.203 83.64 306.451 85.176C307.731 86.68 308.691 88.52 309.331 90.696C309.971 92.84 310.291 95.24 310.291 97.896V129H308.467C307.507 129 306.915 128.552 306.691 127.656L306.019 121.512C304.707 122.792 303.395 123.944 302.083 124.968C300.803 125.992 299.459 126.856 298.051 127.56C296.643 128.264 295.123 128.808 293.491 129.192C291.859 129.576 290.067 129.768 288.115 129.768C286.483 129.768 284.899 129.528 283.363 129.048C281.827 128.568 280.451 127.832 279.235 126.84C278.051 125.848 277.091 124.584 276.355 123.048C275.651 121.48 275.299 119.608 275.299 117.432C275.299 115.416 275.875 113.544 277.027 111.816C278.179 110.088 279.987 108.584 282.451 107.304C284.915 106.024 288.067 105 291.907 104.232C295.779 103.464 300.419 103.016 305.827 102.888V97.896C305.827 93.48 304.867 90.088 302.947 87.72C301.059 85.32 298.243 84.12 294.499 84.12C292.195 84.12 290.227 84.44 288.595 85.08C286.995 85.72 285.635 86.424 284.515 87.192C283.395 87.96 282.483 88.664 281.779 89.304C281.075 89.944 280.483 90.264 280.003 90.264C279.651 90.264 279.363 90.184 279.139 90.024C278.915 89.864 278.723 89.656 278.563 89.4L277.747 88.008ZM329.959 92.76C330.695 90.808 331.527 89.08 332.455 87.576C333.415 86.04 334.503 84.744 335.719 83.688C336.967 82.632 338.343 81.832 339.847 81.288C341.383 80.712 343.079 80.424 344.935 80.424C345.927 80.424 346.903 80.52 347.863 80.712C348.823 80.872 349.671 81.176 350.407 81.624L350.023 84.792C349.863 85.304 349.559 85.56 349.111 85.56C348.727 85.56 348.135 85.448 347.335 85.224C346.567 85 345.543 84.888 344.263 84.888C342.407 84.888 340.759 85.176 339.319 85.752C337.911 86.296 336.631 87.128 335.479 88.248C334.359 89.368 333.367 90.76 332.503 92.424C331.671 94.056 330.903 95.944 330.199 98.088V129H325.591V81.24H328.039C328.583 81.24 328.967 81.352 329.191 81.576C329.415 81.8 329.559 82.184 329.623 82.728L329.959 92.76ZM388.922 87.624C388.762 87.784 388.602 87.928 388.442 88.056C388.314 88.152 388.122 88.2 387.866 88.2C387.546 88.2 387.114 87.992 386.57 87.576C386.026 87.128 385.29 86.648 384.362 86.136C383.434 85.624 382.266 85.16 380.858 84.744C379.482 84.296 377.802 84.072 375.818 84.072C373.066 84.072 370.618 84.568 368.474 85.56C366.362 86.52 364.57 87.912 363.098 89.736C361.626 91.56 360.506 93.768 359.738 96.36C359.002 98.952 358.634 101.864 358.634 105.096C358.634 108.456 359.018 111.432 359.786 114.024C360.586 116.616 361.706 118.808 363.146 120.6C364.586 122.36 366.33 123.704 368.378 124.632C370.426 125.56 372.698 126.024 375.194 126.024C377.498 126.024 379.418 125.752 380.954 125.208C382.522 124.664 383.802 124.072 384.794 123.432C385.818 122.792 386.618 122.2 387.194 121.656C387.77 121.112 388.25 120.84 388.634 120.84C389.018 120.84 389.338 121 389.594 121.32L390.794 122.856C390.058 123.816 389.13 124.712 388.01 125.544C386.89 126.376 385.626 127.096 384.218 127.704C382.81 128.312 381.274 128.776 379.61 129.096C377.978 129.448 376.266 129.624 374.474 129.624C371.434 129.624 368.65 129.08 366.122 127.992C363.626 126.872 361.466 125.272 359.642 123.192C357.85 121.08 356.442 118.504 355.418 115.464C354.426 112.424 353.93 108.968 353.93 105.096C353.93 101.448 354.41 98.12 355.37 95.112C356.33 92.104 357.738 89.512 359.594 87.336C361.45 85.16 363.706 83.48 366.362 82.296C369.05 81.08 372.122 80.472 375.578 80.472C378.682 80.472 381.434 80.968 383.834 81.96C386.234 82.952 388.33 84.296 390.122 85.992L388.922 87.624ZM406.699 89.304C408.907 86.616 411.419 84.472 414.235 82.872C417.083 81.272 420.267 80.472 423.787 80.472C426.411 80.472 428.715 80.888 430.699 81.72C432.715 82.552 434.379 83.752 435.691 85.32C437.003 86.888 437.995 88.776 438.667 90.984C439.339 93.192 439.675 95.688 439.675 98.472V129H435.067V98.472C435.067 93.992 434.043 90.488 431.995 87.96C429.947 85.4 426.827 84.12 422.635 84.12C419.531 84.12 416.619 84.92 413.899 86.52C411.211 88.088 408.811 90.28 406.699 93.096V129H402.091V59.16H406.699V89.304Z" fill="black"/>
<g filter="url(#filter0_d_332_1150)">
<rect x="8.5" y="6.5" width="505" height="167" stroke="black" stroke-width="3" shape-rendering="crispEdges"/>
</g>
<defs>
<filter id="filter0_d_332_1150" x="0" y="0" width="534" height="196" filterUnits="userSpaceOnUse" color-interpolation-filters="sRGB">
<feFlood flood-opacity="0" result="BackgroundImageFix"/>
<feColorMatrix in="SourceAlpha" type="matrix" values="0 0 0 0 0 0 0 0 0 0 0 0 0 0 0 0 0 0 127 0" result="hardAlpha"/>
<feMorphology radius="9" operator="dilate" in="SourceAlpha" result="effect1_dropShadow_332_1150"/>
<feOffset dx="6" dy="8"/>
<feGaussianBlur stdDeviation="2"/>
<feComposite in2="hardAlpha" operator="out"/>
<feColorMatrix type="matrix" values="0 0 0 0 0 0 0 0 0 0 0 0 0 0 0 0 0 0 0.25 0"/>
<feBlend mode="normal" in2="BackgroundImageFix" result="effect1_dropShadow_332_1150"/>
<feBlend mode="normal" in="SourceGraphic" in2="effect1_dropShadow_332_1150" result="shape"/>
</filter>
</defs>
</svg>
