<svg width="1009" height="196" viewBox="0 0 1009 196" fill="none" xmlns="http://www.w3.org/2000/svg">
<path d="M239.734 61.08L218.374 129H213.958L193.894 70.056C193.638 69.256 193.414 68.424 193.222 67.56C193.03 68.424 192.806 69.256 192.55 70.056L172.438 129H168.07L146.662 61.08H150.742C151.67 61.08 152.262 61.512 152.518 62.376L169.654 118.2C170.006 119.48 170.326 120.936 170.614 122.568C170.774 121.736 170.934 120.968 171.094 120.264C171.254 119.528 171.446 118.84 171.67 118.2L190.87 62.376C190.998 62.024 191.222 61.72 191.542 61.464C191.862 61.208 192.246 61.08 192.694 61.08H194.038C194.486 61.08 194.854 61.208 195.142 61.464C195.43 61.688 195.654 61.992 195.814 62.376L215.014 118.2C215.238 118.808 215.43 119.48 215.59 120.216C215.782 120.952 215.958 121.72 216.118 122.52C216.278 121.72 216.422 120.968 216.55 120.264C216.71 119.528 216.87 118.84 217.03 118.2L234.166 62.376C234.262 62.024 234.47 61.72 234.79 61.464C235.142 61.208 235.542 61.08 235.99 61.08H239.734ZM263.909 80.472C267.333 80.472 270.389 81.064 273.077 82.248C275.797 83.4 278.085 85.048 279.941 87.192C281.797 89.336 283.205 91.928 284.165 94.968C285.157 97.976 285.653 101.352 285.653 105.096C285.653 108.84 285.157 112.216 284.165 115.224C283.205 118.232 281.797 120.808 279.941 122.952C278.085 125.096 275.797 126.744 273.077 127.896C270.389 129.048 267.333 129.624 263.909 129.624C260.485 129.624 257.413 129.048 254.693 127.896C252.005 126.744 249.717 125.096 247.829 122.952C245.973 120.808 244.549 118.232 243.557 115.224C242.597 112.216 242.117 108.84 242.117 105.096C242.117 101.352 242.597 97.976 243.557 94.968C244.549 91.928 245.973 89.336 247.829 87.192C249.717 85.048 252.005 83.4 254.693 82.248C257.413 81.064 260.485 80.472 263.909 80.472ZM263.909 126.024C266.757 126.024 269.237 125.544 271.349 124.584C273.493 123.592 275.269 122.184 276.677 120.36C278.117 118.536 279.189 116.344 279.893 113.784C280.597 111.192 280.949 108.296 280.949 105.096C280.949 101.928 280.597 99.048 279.893 96.456C279.189 93.864 278.117 91.656 276.677 89.832C275.269 87.976 273.493 86.552 271.349 85.56C269.237 84.568 266.757 84.072 263.909 84.072C261.061 84.072 258.565 84.568 256.421 85.56C254.309 86.552 252.533 87.976 251.093 89.832C249.685 91.656 248.613 93.864 247.877 96.456C247.173 99.048 246.821 101.928 246.821 105.096C246.821 108.296 247.173 111.192 247.877 113.784C248.613 116.344 249.685 118.536 251.093 120.36C252.533 122.184 254.309 123.592 256.421 124.584C258.565 125.544 261.061 126.024 263.909 126.024ZM302.896 92.76C303.632 90.808 304.464 89.08 305.392 87.576C306.352 86.04 307.44 84.744 308.656 83.688C309.904 82.632 311.28 81.832 312.784 81.288C314.32 80.712 316.016 80.424 317.872 80.424C318.864 80.424 319.84 80.52 320.8 80.712C321.76 80.872 322.608 81.176 323.344 81.624L322.96 84.792C322.8 85.304 322.496 85.56 322.048 85.56C321.664 85.56 321.072 85.448 320.272 85.224C319.504 85 318.48 84.888 317.2 84.888C315.344 84.888 313.696 85.176 312.256 85.752C310.848 86.296 309.568 87.128 308.416 88.248C307.296 89.368 306.304 90.76 305.44 92.424C304.608 94.056 303.84 95.944 303.136 98.088V129H298.528V81.24H300.976C301.52 81.24 301.904 81.352 302.128 81.576C302.352 81.8 302.496 82.184 302.56 82.728L302.896 92.76ZM337.074 59.16V101.736H339.282C339.73 101.736 340.146 101.672 340.53 101.544C340.946 101.416 341.394 101.112 341.874 100.632L361.026 82.44C361.346 82.056 361.698 81.768 362.082 81.576C362.466 81.352 362.946 81.24 363.522 81.24H367.554L346.482 101.256C345.906 101.928 345.282 102.456 344.61 102.84C345.122 103.096 345.554 103.4 345.906 103.752C346.29 104.072 346.658 104.456 347.01 104.904L369.138 129H365.154C364.706 129 364.29 128.936 363.906 128.808C363.554 128.648 363.218 128.344 362.898 127.896L342.834 106.392C342.578 106.104 342.322 105.864 342.066 105.672C341.842 105.48 341.602 105.336 341.346 105.24C341.09 105.112 340.786 105.032 340.434 105C340.114 104.936 339.714 104.904 339.234 104.904H337.074V129H332.466V59.16H337.074ZM447.145 124.92L447.049 129H406.345V61.08H447.049V65.16H411.289V92.616H441.049V96.6H411.289V124.92H447.145ZM494.912 129H490.544C490.096 129 489.744 128.872 489.488 128.616C489.232 128.328 489.024 128.056 488.864 127.8L474.368 106.632C474.24 107.208 474 107.768 473.648 108.312L459.824 127.8C459.6 128.088 459.36 128.36 459.104 128.616C458.88 128.872 458.576 129 458.192 129H454.064L471.44 104.568L454.736 81.24H459.104C459.552 81.24 459.888 81.336 460.112 81.528C460.336 81.72 460.528 81.944 460.688 82.2L474.704 102.408C474.768 102.152 474.864 101.88 474.992 101.592C475.152 101.304 475.312 101.016 475.472 100.728L488.576 82.248C488.768 81.96 488.976 81.72 489.2 81.528C489.424 81.336 489.712 81.24 490.064 81.24H494.24L477.584 104.28L494.912 129ZM509.48 118.584C510.408 119.96 511.368 121.128 512.36 122.088C513.384 123.016 514.456 123.784 515.576 124.392C516.696 124.968 517.88 125.384 519.128 125.64C520.408 125.896 521.752 126.024 523.16 126.024C525.976 126.024 528.44 125.512 530.552 124.488C532.664 123.464 534.424 122.024 535.832 120.168C537.272 118.28 538.344 116.04 539.048 113.448C539.784 110.824 540.152 107.944 540.152 104.808C540.152 97.704 538.84 92.488 536.216 89.16C533.592 85.8 529.832 84.12 524.936 84.12C521.768 84.12 518.904 84.936 516.344 86.568C513.784 88.2 511.496 90.472 509.48 93.384V118.584ZM509.288 89.832C511.4 86.952 513.864 84.664 516.68 82.968C519.528 81.272 522.712 80.424 526.232 80.424C532.088 80.424 536.648 82.456 539.912 86.52C543.208 90.584 544.856 96.68 544.856 104.808C544.856 108.296 544.392 111.56 543.464 114.6C542.568 117.608 541.224 120.232 539.432 122.472C537.672 124.68 535.496 126.424 532.904 127.704C530.344 128.984 527.384 129.624 524.024 129.624C520.792 129.624 517.992 129.032 515.624 127.848C513.256 126.664 511.208 124.92 509.48 122.616V145.896H504.872V81.24H507.416C508.216 81.24 508.68 81.64 508.808 82.44L509.288 89.832ZM591.345 100.296C591.345 97.736 590.977 95.448 590.241 93.432C589.537 91.384 588.529 89.656 587.217 88.248C585.905 86.84 584.337 85.768 582.513 85.032C580.721 84.264 578.737 83.88 576.561 83.88C574.097 83.88 571.889 84.264 569.937 85.032C567.985 85.8 566.289 86.904 564.849 88.344C563.441 89.784 562.305 91.512 561.441 93.528C560.577 95.544 560.001 97.8 559.713 100.296H591.345ZM559.473 103.224V104.136C559.473 107.72 559.889 110.872 560.721 113.592C561.553 116.312 562.737 118.6 564.273 120.456C565.809 122.28 567.665 123.656 569.841 124.584C572.017 125.512 574.449 125.976 577.137 125.976C579.537 125.976 581.617 125.72 583.377 125.208C585.137 124.664 586.609 124.072 587.793 123.432C589.009 122.76 589.969 122.168 590.673 121.656C591.377 121.112 591.889 120.84 592.209 120.84C592.625 120.84 592.945 121 593.169 121.32L594.417 122.856C593.649 123.816 592.625 124.712 591.345 125.544C590.097 126.376 588.689 127.096 587.121 127.704C585.585 128.28 583.921 128.744 582.129 129.096C580.369 129.448 578.593 129.624 576.801 129.624C573.537 129.624 570.561 129.064 567.873 127.944C565.185 126.792 562.881 125.128 560.961 122.952C559.041 120.776 557.553 118.12 556.497 114.984C555.473 111.816 554.961 108.2 554.961 104.136C554.961 100.712 555.441 97.56 556.401 94.68C557.393 91.768 558.801 89.272 560.625 87.192C562.481 85.08 564.737 83.432 567.393 82.248C570.081 81.064 573.121 80.472 576.513 80.472C579.201 80.472 581.697 80.936 584.001 81.864C586.305 82.792 588.305 84.152 590.001 85.944C591.697 87.704 593.025 89.88 593.985 92.472C594.977 95.064 595.473 98.04 595.473 101.4C595.473 102.104 595.377 102.584 595.185 102.84C594.993 103.096 594.673 103.224 594.225 103.224H559.473ZM612.271 92.76C613.007 90.808 613.839 89.08 614.767 87.576C615.727 86.04 616.815 84.744 618.031 83.688C619.279 82.632 620.655 81.832 622.159 81.288C623.695 80.712 625.391 80.424 627.247 80.424C628.239 80.424 629.215 80.52 630.175 80.712C631.135 80.872 631.983 81.176 632.719 81.624L632.335 84.792C632.175 85.304 631.871 85.56 631.423 85.56C631.039 85.56 630.447 85.448 629.647 85.224C628.879 85 627.855 84.888 626.575 84.888C624.719 84.888 623.071 85.176 621.631 85.752C620.223 86.296 618.943 87.128 617.791 88.248C616.671 89.368 615.679 90.76 614.815 92.424C613.983 94.056 613.215 95.944 612.511 98.088V129H607.903V81.24H610.351C610.895 81.24 611.279 81.352 611.503 81.576C611.727 81.8 611.871 82.184 611.935 82.728L612.271 92.76ZM646.929 81.24V129H642.369V81.24H646.929ZM648.897 64.776C648.897 65.352 648.769 65.896 648.513 66.408C648.289 66.888 647.985 67.32 647.601 67.704C647.217 68.088 646.769 68.392 646.257 68.616C645.745 68.84 645.201 68.952 644.625 68.952C644.049 68.952 643.505 68.84 642.993 68.616C642.481 68.392 642.033 68.088 641.649 67.704C641.265 67.32 640.961 66.888 640.737 66.408C640.513 65.896 640.401 65.352 640.401 64.776C640.401 64.2 640.513 63.656 640.737 63.144C640.961 62.6 641.265 62.136 641.649 61.752C642.033 61.368 642.481 61.064 642.993 60.84C643.505 60.616 644.049 60.504 644.625 60.504C645.201 60.504 645.745 60.616 646.257 60.84C646.769 61.064 647.217 61.368 647.601 61.752C647.985 62.136 648.289 62.6 648.513 63.144C648.769 63.656 648.897 64.2 648.897 64.776ZM696.72 100.296C696.72 97.736 696.352 95.448 695.616 93.432C694.912 91.384 693.904 89.656 692.592 88.248C691.28 86.84 689.712 85.768 687.888 85.032C686.096 84.264 684.112 83.88 681.936 83.88C679.472 83.88 677.264 84.264 675.312 85.032C673.36 85.8 671.664 86.904 670.224 88.344C668.816 89.784 667.68 91.512 666.816 93.528C665.952 95.544 665.376 97.8 665.088 100.296H696.72ZM664.848 103.224V104.136C664.848 107.72 665.264 110.872 666.096 113.592C666.928 116.312 668.112 118.6 669.648 120.456C671.184 122.28 673.04 123.656 675.216 124.584C677.392 125.512 679.824 125.976 682.512 125.976C684.912 125.976 686.992 125.72 688.752 125.208C690.512 124.664 691.984 124.072 693.168 123.432C694.384 122.76 695.344 122.168 696.048 121.656C696.752 121.112 697.264 120.84 697.584 120.84C698 120.84 698.32 121 698.544 121.32L699.792 122.856C699.024 123.816 698 124.712 696.72 125.544C695.472 126.376 694.064 127.096 692.496 127.704C690.96 128.28 689.296 128.744 687.504 129.096C685.744 129.448 683.968 129.624 682.176 129.624C678.912 129.624 675.936 129.064 673.248 127.944C670.56 126.792 668.256 125.128 666.336 122.952C664.416 120.776 662.928 118.12 661.872 114.984C660.848 111.816 660.336 108.2 660.336 104.136C660.336 100.712 660.816 97.56 661.776 94.68C662.768 91.768 664.176 89.272 666 87.192C667.856 85.08 670.112 83.432 672.768 82.248C675.456 81.064 678.496 80.472 681.888 80.472C684.576 80.472 687.072 80.936 689.376 81.864C691.68 82.792 693.68 84.152 695.376 85.944C697.072 87.704 698.4 89.88 699.36 92.472C700.352 95.064 700.848 98.04 700.848 101.4C700.848 102.104 700.752 102.584 700.56 102.84C700.368 103.096 700.048 103.224 699.6 103.224H664.848ZM717.646 89.592C719.854 86.84 722.398 84.632 725.278 82.968C728.19 81.304 731.422 80.472 734.974 80.472C737.598 80.472 739.902 80.888 741.886 81.72C743.902 82.552 745.566 83.752 746.878 85.32C748.19 86.888 749.182 88.776 749.854 90.984C750.526 93.192 750.862 95.688 750.862 98.472V129H746.254V98.472C746.254 93.992 745.23 90.488 743.182 87.96C741.134 85.4 738.014 84.12 733.822 84.12C730.718 84.12 727.806 84.92 725.086 86.52C722.398 88.088 719.998 90.28 717.886 93.096V129H713.278V81.24H715.822C716.622 81.24 717.086 81.64 717.214 82.44L717.646 89.592ZM798.172 87.624C798.012 87.784 797.852 87.928 797.692 88.056C797.564 88.152 797.372 88.2 797.116 88.2C796.796 88.2 796.364 87.992 795.82 87.576C795.276 87.128 794.54 86.648 793.612 86.136C792.684 85.624 791.516 85.16 790.108 84.744C788.732 84.296 787.052 84.072 785.068 84.072C782.316 84.072 779.868 84.568 777.724 85.56C775.612 86.52 773.82 87.912 772.348 89.736C770.876 91.56 769.756 93.768 768.988 96.36C768.252 98.952 767.884 101.864 767.884 105.096C767.884 108.456 768.268 111.432 769.036 114.024C769.836 116.616 770.956 118.808 772.396 120.6C773.836 122.36 775.58 123.704 777.628 124.632C779.676 125.56 781.948 126.024 784.444 126.024C786.748 126.024 788.668 125.752 790.204 125.208C791.772 124.664 793.052 124.072 794.044 123.432C795.068 122.792 795.868 122.2 796.444 121.656C797.02 121.112 797.5 120.84 797.884 120.84C798.268 120.84 798.588 121 798.844 121.32L800.044 122.856C799.308 123.816 798.38 124.712 797.26 125.544C796.14 126.376 794.876 127.096 793.468 127.704C792.06 128.312 790.524 128.776 788.86 129.096C787.228 129.448 785.516 129.624 783.724 129.624C780.684 129.624 777.9 129.08 775.372 127.992C772.876 126.872 770.716 125.272 768.892 123.192C767.1 121.08 765.692 118.504 764.668 115.464C763.676 112.424 763.18 108.968 763.18 105.096C763.18 101.448 763.66 98.12 764.62 95.112C765.58 92.104 766.988 89.512 768.844 87.336C770.7 85.16 772.956 83.48 775.612 82.296C778.3 81.08 781.372 80.472 784.828 80.472C787.932 80.472 790.684 80.968 793.084 81.96C795.484 82.952 797.58 84.296 799.372 85.992L798.172 87.624ZM843.907 100.296C843.907 97.736 843.539 95.448 842.803 93.432C842.099 91.384 841.091 89.656 839.779 88.248C838.467 86.84 836.899 85.768 835.075 85.032C833.283 84.264 831.299 83.88 829.123 83.88C826.659 83.88 824.451 84.264 822.499 85.032C820.547 85.8 818.851 86.904 817.411 88.344C816.003 89.784 814.867 91.512 814.003 93.528C813.139 95.544 812.563 97.8 812.275 100.296H843.907ZM812.035 103.224V104.136C812.035 107.72 812.451 110.872 813.283 113.592C814.115 116.312 815.299 118.6 816.835 120.456C818.371 122.28 820.227 123.656 822.403 124.584C824.579 125.512 827.011 125.976 829.699 125.976C832.099 125.976 834.179 125.72 835.939 125.208C837.699 124.664 839.171 124.072 840.355 123.432C841.571 122.76 842.531 122.168 843.235 121.656C843.939 121.112 844.451 120.84 844.771 120.84C845.187 120.84 845.507 121 845.731 121.32L846.979 122.856C846.211 123.816 845.187 124.712 843.907 125.544C842.659 126.376 841.251 127.096 839.683 127.704C838.147 128.28 836.483 128.744 834.691 129.096C832.931 129.448 831.155 129.624 829.363 129.624C826.099 129.624 823.123 129.064 820.435 127.944C817.747 126.792 815.443 125.128 813.523 122.952C811.603 120.776 810.115 118.12 809.059 114.984C808.035 111.816 807.523 108.2 807.523 104.136C807.523 100.712 808.003 97.56 808.963 94.68C809.955 91.768 811.363 89.272 813.187 87.192C815.043 85.08 817.299 83.432 819.955 82.248C822.643 81.064 825.683 80.472 829.075 80.472C831.763 80.472 834.259 80.936 836.563 81.864C838.867 82.792 840.867 84.152 842.563 85.944C844.259 87.704 845.587 89.88 846.547 92.472C847.539 95.064 848.035 98.04 848.035 101.4C848.035 102.104 847.939 102.584 847.747 102.84C847.555 103.096 847.235 103.224 846.787 103.224H812.035Z" fill="black"/>
<g filter="url(#filter0_d_313_734)">
<rect x="8.5" y="6.5" width="980" height="167" stroke="black" stroke-width="3" shape-rendering="crispEdges"/>
</g>
<defs>
<filter id="filter0_d_313_734" x="0" y="0" width="1009" height="196" filterUnits="userSpaceOnUse" color-interpolation-filters="sRGB">
<feFlood flood-opacity="0" result="BackgroundImageFix"/>
<feColorMatrix in="SourceAlpha" type="matrix" values="0 0 0 0 0 0 0 0 0 0 0 0 0 0 0 0 0 0 127 0" result="hardAlpha"/>
<feMorphology radius="9" operator="dilate" in="SourceAlpha" result="effect1_dropShadow_313_734"/>
<feOffset dx="6" dy="8"/>
<feGaussianBlur stdDeviation="2"/>
<feComposite in2="hardAlpha" operator="out"/>
<feColorMatrix type="matrix" values="0 0 0 0 0 0 0 0 0 0 0 0 0 0 0 0 0 0 0.25 0"/>
<feBlend mode="normal" in2="BackgroundImageFix" result="effect1_dropShadow_313_734"/>
<feBlend mode="normal" in="SourceGraphic" in2="effect1_dropShadow_313_734" result="shape"/>
</filter>
</defs>
</svg>
